<svg xmlns="http://www.w3.org/2000/svg" width="64" height="64" viewBox="0 0 64 64"><path d="M8,32A24,24,0,0,0,32,56H56V32A24,24,0,0,0,32,8c-4.6.32-10.5,3.36-15.57,8.43S8.32,27.4,8,32Z" fill="none" stroke="#222" stroke-miterlimit="10" stroke-width="0.5"/><ellipse cx="23.85" cy="23.85" rx="19.8" ry="10.49" transform="translate(-9.88 23.85) rotate(-45)" fill="none" stroke="#222" stroke-miterlimit="10" stroke-width="0.5"/><path d="M48.18,14.24c6.63,6.63,4.41,19.6-5,29s-22.34,11.6-29,5" fill="none" stroke="#222" stroke-miterlimit="10" stroke-width="0.5"/><path d="M56,56l-1.87-7A45.12,45.12,0,0,0,36.87,24h0" fill="none" stroke="#222" stroke-miterlimit="10" stroke-width="0.5"/><path d="M24,36.88h0A45.15,45.15,0,0,0,49,54.13L56,56" fill="none" stroke="#222" stroke-miterlimit="10" stroke-width="0.5"/></svg>