<svg xmlns="http://www.w3.org/2000/svg" width="64" height="64" viewBox="0 0 64 64"><path d="M55.57,55.57,54.08,50a45.77,45.77,0,0,0-4.84-11.51A35.93,35.93,0,0,1,38.49,49.24,45.61,45.61,0,0,0,50,54.08Z" fill="#222"/><path d="M50.45,36.46A48.07,48.07,0,0,1,56,49.12V32a23.88,23.88,0,0,0-2.2-10,21,21,0,0,1-.22,5.72A28.32,28.32,0,0,1,50.45,36.46Z" fill="#222"/><path d="M49.13,34.44c3.7-7.44,3.67-15.23-.72-19.94a24,24,0,0,0-8.67-5.22c2.2,3.36,1.61,8.61-1.3,14.08A48.23,48.23,0,0,1,49.13,34.44Z" fill="#222"/><path d="M37.39,25.18A37.29,37.29,0,0,1,32,32a37.8,37.8,0,0,1-6.78,5.44A46.35,46.35,0,0,0,36.5,48,33.43,33.43,0,0,0,48,36.5,46.2,46.2,0,0,0,37.39,25.18Z" fill="#222"/><path d="M49.12,56a47.75,47.75,0,0,1-12.66-5.55,28.32,28.32,0,0,1-8.78,3.13,21.78,21.78,0,0,1-3.79.34c-.64,0-1.27,0-1.88-.1A24,24,0,0,0,32,56Z" fill="#222"/><path d="M33.08,8h-.46c-3.7.07-8.51,2.11-13,5.67a.18.18,0,0,1-.07.05l-.87.73-.2.16-.78.7-.24.22c-.33.31-.66.62-1,1s-.83.85-1.23,1.28A3.33,3.33,0,0,1,15,18C10.43,23.18,7.86,29,8,33.17c0,.22,0,.43.05.65a5.78,5.78,0,0,0,1.55,3.54C13.4,41.16,23,38,30.49,30.49S41.16,13.4,37.36,9.61A6.1,6.1,0,0,0,33.08,8Z" fill="#222"/><path d="M34.44,49.13A48.23,48.23,0,0,1,23.36,38.44a20.14,20.14,0,0,1-9.15,2.64,8.93,8.93,0,0,1-4.93-1.32,24.11,24.11,0,0,0,5.22,8.65C19.21,52.8,27,52.83,34.44,49.13Z" fill="#222"/></svg>